<?xml version="1.0" encoding="UTF-8" standalone="no"?>
<!-- Created with Inkscape (http://www.inkscape.org/) -->

<svg
   width="56.281216mm"
   height="56.233746mm"
   viewBox="0 0 56.281216 56.233744"
   version="1.1"
   id="svg1"
   xml:space="preserve"
   xmlns="http://www.w3.org/2000/svg"
   xmlns:svg="http://www.w3.org/2000/svg"><defs
     id="defs1" /><path
     style="display:inline;fill:#000000"
     d="m 24.678692,56.040138 c -7.85906,-0.89887 -14.543691,-5.01868 -19.8785048,-12.25136 -8.641983,-11.71637 -5.25906108,-29.69273 7.2869198,-38.72164 13.898665,-10.00239 34.022995,-4.62159004 41.464025,11.08656 9.42659,19.89974 -6.86326,42.4037 -28.87244,39.88644 z m 5.98549,-2.40216 c 21.85275,-2.67172 30.89471,-28.58374 15.2893,-43.81538 -10.06352,-9.8224900359 -25.55605,-9.8224900359 -35.619577,0 -16.2808758,15.89093 -5.6001078,42.90333 17.419857,44.05602 0.36762,0.0184 1.67731,-0.0899 2.91042,-0.24064 z m -7.89967,-4.48929 c -1.90796,-0.52987 -2.3842,-0.86315 -1.96758,-1.37695 0.87401,-1.07785 1.44894,-7.90387 0.8744,-10.3815 -0.33384,-1.43964 -0.21671,-1.50654 1.51409,-0.86475 2.20053,0.81598 7.89073,0.80694 10.37087,-0.0165 1.98317,-0.65842 1.98086,-0.65917 1.64975,0.54001 -0.47893,1.73456 -0.21966,6.73785 0.46653,9.0028 0.37107,1.22482 0.52706,2.15445 0.38431,2.29035 -1.35175,1.28693 -9.73169,1.79538 -13.29237,0.80652 z m -6.66973,-3.12607 c -3.254875,-2.46608 -5.531677,-5.04417 -6.9480101,-7.86741 l -0.6707757,-1.33709 0.8179117,-1.70562 c 2.4158371,-5.03783 3.7883471,-6.03704 5.6509641,-4.11399 3.49554,3.60894 4.76953,9.56906 3.03072,14.17859 -0.30114,0.79832 -0.54752,1.48292 -0.54752,1.52136 0,0.20843 -0.5021,-0.0461 -1.33329,-0.67584 z m 22.73689,-0.77635 c -1.67084,-4.27516 -0.39502,-10.25876 2.97314,-13.94406 1.73578,-1.89922 2.58559,-1.27007 5.12851,3.79687 1.48731,2.96356 -0.14995,6.30611 -4.85401,9.90972 -2.60637,1.99664 -2.5614,1.99336 -3.24764,0.23747 z m -13.86298,-11.57229 c -3.07695,-0.78113 -5.63479,-2.47459 -7.53089,-4.98595 -1.32422,-1.75392 -1.35755,-1.56634 0.45329,-2.55064 6.5023,-3.53435 15.21446,-3.52174 20.9874,0.0304 1.57049,0.96634 1.56502,0.90793 0.24197,2.58171 -3.41221,4.31677 -8.95208,6.24452 -14.15177,4.9245 z m 24.23243,-1.42782 c -8.40696,-15.38764 -31.98466,-16.27716 -41.0334688,-1.54807 -1.36403,2.22028 -1.590529,1.83666 -1.58359,-2.68209 0.0372,-24.22131 34.3633488,-29.97452 42.4844288,-7.12058 1.42491,4.0099 1.5408,13.92818 0.13263,11.35074 z"
     id="path39314" /></svg>
